<?xml version="1.0" standalone="no"?>
<!DOCTYPE svg PUBLIC "-//W3C//DTD SVG 20010904//EN"
 "http://www.w3.org/TR/2001/REC-SVG-20010904/DTD/svg10.dtd">
<svg version="1.0" xmlns="http://www.w3.org/2000/svg"
 width="500.000000pt" height="232.000000pt" viewBox="0 0 500.000000 232.000000"
 preserveAspectRatio="xMidYMid meet">

<g transform="translate(0.000000,232.000000) scale(0.100000,-0.100000)"
fill="#000000" stroke="none">
<path d="M0 1670 l0 -590 25 0 25 0 0 570 0 570 570 0 c563 0 570 0 570 20 0
20 -7 20 -595 20 l-595 0 0 -590z"/>
<path d="M940 1500 c0 -18 7 -20 80 -20 l80 0 0 -190 0 -190 25 0 25 0 0 190
0 190 80 0 c73 0 80 2 80 20 0 19 -7 20 -185 20 -178 0 -185 -1 -185 -20z"/>
<path d="M1460 1310 l0 -210 30 0 30 0 0 90 0 90 28 0 c37 0 40 -4 101 -92 51
-75 89 -104 127 -96 24 4 30 28 7 28 -24 0 -47 24 -105 111 l-45 66 34 12 c56
21 79 91 48 150 -21 41 -79 61 -175 61 l-80 0 0 -210z m169 165 c33 -16 41
-33 41 -80 0 -48 -46 -85 -106 -85 l-44 0 0 90 0 90 40 0 c23 0 54 -7 69 -15z"/>
<path d="M2071 1498 c-5 -13 -45 -107 -89 -210 -56 -131 -75 -188 -66 -188 8
0 26 27 41 60 l26 60 104 0 104 0 26 -60 c23 -54 29 -60 55 -60 16 0 28 4 26
9 -30 82 -194 411 -205 411 -7 0 -17 -10 -22 -22z m58 -147 c22 -49 41 -92 41
-95 0 -3 -38 -6 -85 -6 -47 0 -85 3 -85 7 0 15 74 183 81 183 3 0 25 -40 48
-89z"/>
<path d="M2460 1312 c0 -182 2 -212 15 -212 13 0 15 24 15 157 l0 158 93 -90
c50 -50 125 -121 165 -160 l72 -69 0 213 c0 166 -3 212 -12 209 -9 -3 -14 -48
-18 -159 l-5 -154 -162 159 -163 159 0 -211z"/>
<path d="M3070 1319 c-47 -111 -86 -206 -88 -210 -2 -5 3 -9 11 -9 8 0 24 26
38 60 l24 60 106 0 106 0 26 -60 c23 -54 28 -60 56 -60 l30 0 -85 181 c-108
232 -112 239 -127 239 -7 0 -50 -91 -97 -201z m134 -67 c-24 -2 -64 -2 -88 0
l-44 3 41 99 42 98 47 -98 46 -99 -44 -3z"/>
<path d="M3537 1514 c-4 -4 -7 -99 -7 -211 0 -172 2 -203 15 -203 12 0 15 28
17 168 l3 167 88 -167 c49 -92 92 -170 96 -172 4 -3 47 68 95 157 49 89 92
166 97 172 5 5 9 -60 9 -158 l0 -167 25 0 25 0 0 210 c0 276 -2 276 -130 38
-51 -95 -95 -176 -99 -180 -3 -4 -49 72 -101 170 -87 161 -113 196 -133 176z"/>
<path d="M4950 620 l0 -570 -570 0 c-563 0 -570 0 -570 -20 0 -20 7 -20 595
-20 l595 0 0 590 0 590 -25 0 -25 0 0 -570z"/>
<path d="M2047 849 c-21 -30 -11 -53 34 -79 30 -16 39 -27 37 -43 -4 -29 -42
-34 -60 -8 -9 13 -19 17 -27 12 -11 -7 -9 -13 8 -30 42 -42 115 -17 109 38 -2
19 -15 32 -45 49 -24 13 -43 30 -43 38 0 20 29 29 50 16 22 -13 34 -4 19 15
-17 20 -66 16 -82 -8z"/>
<path d="M2200 860 c0 -5 14 -10 30 -10 l30 0 0 -85 c0 -69 3 -85 15 -85 12 0
15 16 15 85 l0 85 30 0 c17 0 30 5 30 10 0 6 -32 10 -75 10 -43 0 -75 -4 -75
-10z"/>
<path d="M2438 860 c-22 -14 -41 -75 -33 -108 23 -95 149 -97 170 -2 8 38 -11
97 -35 110 -24 13 -80 12 -102 0z m92 -30 c41 -41 14 -130 -40 -130 -32 0 -60
36 -60 75 0 39 28 75 60 75 11 0 29 -9 40 -20z"/>
<path d="M2650 775 c0 -78 3 -95 15 -95 11 0 15 11 15 40 0 26 4 40 13 40 7 0
23 -18 36 -40 12 -22 29 -40 38 -40 12 0 10 8 -9 43 -24 41 -24 43 -6 60 41
39 6 87 -64 87 l-38 0 0 -95z m75 61 c25 -18 13 -46 -20 -46 -21 0 -25 5 -25
30 0 33 15 38 45 16z"/>
<path d="M2850 775 l0 -95 60 0 c47 0 60 3 60 15 0 11 -12 15 -50 15 -47 0
-50 2 -50 25 0 23 4 25 45 25 33 0 45 4 45 15 0 11 -12 15 -46 15 -44 0 -45 1
-42 28 3 25 7 27 51 30 68 4 58 22 -13 22 l-60 0 0 -95z"/>
<path d="M873 773 c-18 -7 -16 -30 3 -37 9 -3 190 -6 403 -6 312 0 391 3 406
14 43 31 -11 36 -412 35 -213 0 -394 -3 -400 -6z"/>
<path d="M3363 773 c-18 -7 -16 -30 3 -37 20 -8 728 -8 748 0 9 3 16 12 16 19
0 7 -7 16 -16 19 -19 7 -733 7 -751 -1z"/>
</g>
</svg>
